<svg width="149" height="76" viewBox="0 0 149 76" fill="none" xmlns="http://www.w3.org/2000/svg">
<path d="M121.738 45.1533C123.225 45.0325 124.652 44.6704 125.927 43.8554C127.992 42.5576 129.145 40.6561 129.601 38.3018C129.661 37.9698 129.692 37.6076 129.783 37.2756C129.874 36.9436 129.783 36.853 129.449 36.853C127.84 36.8832 126.201 36.853 124.592 36.853C124.47 36.853 124.349 36.853 124.197 36.8229C123.772 35.6457 123.195 34.5592 122.618 33.4726C123.893 33.2311 125.138 33.9555 125.563 35.193C125.684 35.525 125.775 35.6155 126.109 35.4646C127.111 35.0421 128.113 34.6497 129.115 34.2875C129.388 34.197 129.388 34.1064 129.297 33.8348C128.386 31.5107 126.565 30.5147 124.166 30.3034C123.043 30.2128 121.95 30.3336 120.857 30.6052C118.732 27.3757 116.364 24.3272 113.784 21.4297C113.116 20.6751 112.448 19.9205 112.023 18.9849C111.811 18.5623 111.689 18.1096 111.719 17.6267C111.75 16.9023 112.236 16.4194 112.964 16.359C113.814 16.2986 114.573 16.6005 115.241 17.0532C117.214 18.3812 119.066 19.8602 120.888 21.3693C123.893 23.8443 126.717 26.4702 129.267 29.3979C130.936 31.2994 132.454 33.2613 133.547 35.5552C134.033 36.5512 134.579 37.5472 134.458 38.7545C134.367 39.8109 133.972 40.7768 133.547 41.7124C132.394 44.0667 130.785 46.1493 129.054 48.081C125.108 52.5179 120.584 56.3209 115.788 59.7919C115.15 60.2446 114.512 60.637 113.723 60.7879C113.177 60.8785 112.661 60.9086 112.205 60.5163C111.75 60.1239 111.689 59.6108 111.78 59.0373C111.962 58.0715 112.509 57.2565 113.146 56.5322C115.393 54.027 117.518 51.4313 119.461 48.6847C120.25 47.5075 121.04 46.3606 121.738 45.1533ZM124.834 40.475C124.956 40.2637 125.168 39.992 125.077 39.8109C124.956 39.6298 124.652 39.7506 124.409 39.7506C124.197 40.324 123.984 40.9277 123.741 41.5012C124.227 41.3201 124.592 40.9277 124.834 40.475Z" fill="#BC2D00"/>
<path d="M121.738 45.1533C120.706 45.1533 119.674 45.0929 118.672 44.7307C116.759 44.0365 115.575 42.7085 115.029 40.7768C114.998 40.6561 114.968 40.5052 114.907 40.3844C114.755 40.7768 114.725 41.1994 114.664 41.5917C114.513 42.5576 114.391 43.5234 114.27 44.4591C114.239 44.7006 114.148 44.7609 113.936 44.7609C112.904 44.7609 111.841 44.7307 110.809 44.7609C110.536 44.7609 110.445 44.61 110.353 44.4289C108.653 41.803 106.923 39.1771 105.223 36.5512C105.162 36.4607 105.071 36.34 104.95 36.1589C104.798 37.1851 104.676 38.1207 104.555 39.0866C104.312 40.8674 104.039 42.6783 103.826 44.4591C103.796 44.7006 103.705 44.7307 103.492 44.7307C101.58 44.7307 99.6672 44.7307 97.7546 44.7307C97.5118 44.7307 97.4207 44.6402 97.3903 44.3987C97.2689 43.7951 97.1475 43.1612 97.026 42.5576C96.9957 42.3463 96.9046 42.286 96.6617 42.286C95.1134 42.286 93.5652 42.286 91.9865 42.286C91.774 42.286 91.6526 42.3463 91.5615 42.5576C91.2883 43.1914 90.9543 43.7951 90.6811 44.4289C90.59 44.6402 90.4686 44.7307 90.2257 44.7307C88.4649 44.7307 86.7345 44.7307 84.9737 44.7307C84.7308 44.7307 84.6094 44.6402 84.5183 44.4289C83.6682 42.7689 82.8182 41.1088 81.9378 39.328C81.8467 39.9317 81.7557 40.4448 81.6949 40.9277C81.5432 42.1049 81.361 43.282 81.2092 44.4591C81.1788 44.7307 81.027 44.7006 80.8449 44.7006C78.7502 44.7006 76.6858 44.7006 74.591 44.7006C72.0713 44.7006 69.5211 44.7006 67.0014 44.7006C66.6674 44.7006 66.5764 44.61 66.5764 44.278C66.5764 41.7728 66.5764 39.2677 66.5764 36.7927C66.5156 36.7927 66.4853 36.7625 66.4246 36.7625C66.1513 37.2756 65.8478 37.7887 65.5745 38.3018C64.4513 40.3543 63.2976 42.4067 62.1744 44.4591C62.0833 44.6402 61.9619 44.7006 61.7493 44.7006C61.3547 44.6704 60.8993 44.8213 60.6261 44.6402C60.3528 44.4591 60.3832 43.946 60.2921 43.5838C59.7153 41.3805 59.1689 39.147 58.6224 36.9436C58.5921 36.8832 58.5617 36.7927 58.5313 36.672C58.076 38.2717 57.6206 39.7808 57.1956 41.2899C56.892 42.3463 56.5884 43.4027 56.2848 44.4591C56.2241 44.6704 56.133 44.7006 55.9509 44.7006C54.9187 44.7006 53.8561 44.7006 52.8239 44.7006C52.5507 44.7006 52.581 44.61 52.6418 44.3987C53.0061 43.2216 53.3704 42.0143 53.7347 40.8372C53.7347 40.807 53.7347 40.7466 53.7043 40.6259C53.34 41.2296 52.9757 41.7728 52.5203 42.2256C50.6381 44.1875 48.3612 45.0929 45.6593 45.0628C44.0199 45.0326 42.502 44.61 41.2269 43.5838C40.3769 42.8896 39.7697 42.0445 39.4054 41.0183C39.3447 40.8975 39.3143 40.7466 39.2536 40.5655C39.0411 40.8975 38.8286 41.1994 38.6465 41.471C36.3999 44.5798 32.0586 45.8777 28.4763 44.5798C27.2013 44.1271 26.1994 43.3122 25.4708 42.1652C25.4101 42.0747 25.3798 42.0143 25.319 41.9539C25.319 41.9238 25.2887 41.9238 25.228 41.9238C25.0458 42.2859 24.8333 42.6481 24.5904 42.95C23.5582 44.1573 22.1921 44.6402 20.6742 44.6704C18.6098 44.7307 16.5758 44.7006 14.5114 44.7006C14.2685 44.7006 14.2381 44.61 14.2685 44.3987C14.7542 40.9881 15.2096 37.6076 15.6954 34.197C15.8472 33.1406 15.9989 32.0842 16.1204 30.9976C16.1507 30.6958 16.2418 30.6053 16.5758 30.6053C18.5491 30.6656 20.5224 30.5147 22.4653 30.6958C23.5886 30.7863 24.5601 31.2391 25.0154 32.386C25.4708 33.6235 25.1976 35.9174 23.5886 36.9738C23.4975 37.0342 23.4064 37.0945 23.2243 37.2153C23.71 37.336 24.135 37.4869 24.5601 37.7284C24.7119 37.004 24.8637 36.2796 25.1672 35.6156C26.3816 32.9293 28.4156 31.2089 31.2997 30.5147C33.1819 30.062 35.0641 30.1525 36.8249 30.9674C38.3732 31.6918 39.4358 32.869 39.9822 34.4988C40.0126 34.5592 40.0429 34.6497 40.0733 34.7403C40.3162 34.3781 40.559 34.0461 40.8019 33.7443C43.0181 30.7562 47.2379 29.4885 50.7292 30.6958C53.4007 31.6315 54.949 33.9253 54.8883 36.8832C54.8883 36.9738 54.8883 37.0643 54.949 37.1851C55.1008 36.672 55.283 36.189 55.4348 35.6759C55.9205 34.1064 56.4062 32.5369 56.892 30.9674C56.9527 30.726 57.0741 30.6053 57.3473 30.6053C58.3492 30.6354 59.3207 30.6354 60.3225 30.6053C60.5654 30.6053 60.6564 30.6656 60.7172 30.9373C61.2332 33.1708 61.7797 35.4345 62.3262 37.668C62.3565 37.7887 62.3869 37.8793 62.4476 38.0604C62.8119 37.3662 63.1155 36.7625 63.4494 36.1589C64.3602 34.4083 65.2406 32.6577 66.121 30.9071C66.2424 30.6958 66.3639 30.6053 66.6371 30.6053C67.6389 30.6354 68.6104 30.6354 69.6122 30.6053C69.8854 30.6053 69.9462 30.6656 69.9765 30.9373C70.0676 34.2875 70.189 37.6378 70.3105 41.0786C70.4926 40.5354 70.4926 40.0826 70.5533 39.6299C70.948 36.7625 71.3427 33.8952 71.7373 31.0278C71.7677 30.726 71.8588 30.6354 72.1927 30.6354C76.534 30.6354 80.8753 30.6354 85.2165 30.6354C85.8541 30.6354 86.4612 30.6958 87.0684 30.9071C88.6471 31.4202 89.5578 32.8086 89.4364 34.4686C89.3757 35.4647 89.1328 36.4305 88.5256 37.2756C87.9185 38.0906 87.0988 38.6037 86.1577 38.8753C85.8237 38.9659 85.8237 39.0564 85.9755 39.328C86.5523 40.2033 87.0988 41.1088 87.6452 41.9841C87.7363 42.135 87.8274 42.2558 87.9488 42.4369C88.3131 41.7125 88.6774 41.0786 89.0114 40.4146C90.6507 37.2454 92.2901 34.1064 93.9295 30.9373C94.0205 30.7562 94.142 30.6958 94.3545 30.6958C95.5081 30.6958 96.6314 30.6958 97.785 30.6958C98.0279 30.6958 98.1189 30.7562 98.1797 30.9976C98.9083 34.0159 99.6369 37.004 100.396 40.0222C100.487 40.4146 100.578 40.7768 100.76 41.1994C100.791 40.8975 100.851 40.5957 100.882 40.2939C101.307 37.2153 101.732 34.1366 102.157 31.0278C102.187 30.7562 102.278 30.6656 102.551 30.6656C103.553 30.6958 104.525 30.6958 105.526 30.6656C105.8 30.6656 105.951 30.7562 106.103 30.9976C107.803 33.6235 109.534 36.2796 111.234 38.9055C111.295 38.996 111.325 39.1168 111.477 39.1469C111.659 37.8189 111.841 36.4607 112.023 35.1327C112.205 33.7744 112.418 32.4162 112.57 31.0278C112.6 30.7562 112.691 30.6656 112.995 30.6656C113.996 30.6958 114.998 30.6656 116 30.6656C116.243 30.6656 116.304 30.726 116.273 30.9674C116.091 32.2351 115.909 33.533 115.727 34.8006C115.727 34.8912 115.697 35.0119 115.697 35.2232C115.909 34.861 116.031 34.5894 116.182 34.3177C117.245 32.5671 118.732 31.39 120.675 30.7562C120.797 30.726 120.888 30.6656 120.979 30.6354C122.072 30.394 123.165 30.2431 124.288 30.3336C126.656 30.5449 128.478 31.5711 129.419 33.865C129.51 34.1064 129.479 34.197 129.237 34.3177C128.235 34.6799 127.233 35.0723 126.231 35.4948C125.867 35.6458 125.776 35.5552 125.685 35.2232C125.26 33.9857 124.015 33.2613 122.74 33.5028C121.677 33.5632 120.827 34.0159 120.159 34.8006C119.036 36.1287 118.641 37.6982 118.854 39.3884C118.945 40.143 119.279 40.8372 119.916 41.3201C120.888 42.0747 122.8 42.135 123.833 41.471C124.349 41.2597 124.683 40.8674 124.926 40.4146C125.047 40.2033 125.26 39.9317 125.168 39.7506C125.047 39.5695 124.743 39.6902 124.501 39.6902C123.833 39.6902 123.195 39.6601 122.527 39.6601C122.315 39.6601 122.254 39.5997 122.284 39.3884C122.406 38.6037 122.497 37.8189 122.588 37.0342C122.618 36.8229 122.709 36.8229 122.861 36.8229C123.347 36.8229 123.802 36.8229 124.288 36.7927C124.409 36.7927 124.531 36.8229 124.683 36.8229C126.292 36.8229 127.931 36.8229 129.54 36.8229C129.874 36.8229 129.965 36.9134 129.874 37.2454C129.783 37.5775 129.753 37.9095 129.692 38.2717C129.237 40.6259 128.083 42.5274 126.018 43.8253C124.652 44.6704 123.226 45.0628 121.738 45.1533ZM46.3272 41.5917C48.3005 41.5917 50.1827 40.2033 50.7292 38.332C51.4274 35.9476 49.8488 33.8046 47.329 33.865C45.5682 33.8952 44.2324 34.8006 43.3824 36.3098C41.9252 38.7848 43.5038 41.5917 46.3272 41.5917ZM31.7854 41.5917C33.9105 41.5917 35.8838 39.9921 36.2785 37.9095C36.6428 35.9778 35.4588 34.2272 33.5462 33.9253C31.2693 33.5632 28.9621 35.1327 28.4156 37.3964C27.8692 39.6601 29.4174 41.5917 31.7854 41.5917ZM75.8357 41.6521C76.4429 41.6521 77.0501 41.6521 77.6269 41.6521C77.809 41.6521 77.9001 41.5917 77.9305 41.4106C78.0216 40.7768 78.1126 40.1128 78.2037 39.479C78.2341 39.2677 78.1733 39.2073 77.9608 39.2073C76.7768 39.2073 75.5929 39.2073 74.3785 39.2073C74.166 39.2073 74.1357 39.2677 74.1053 39.479C74.0446 40.1128 73.9535 40.7768 73.8321 41.4106C73.8017 41.6521 73.8928 41.6521 74.0749 41.6521C74.6517 41.6521 75.2589 41.6521 75.8357 41.6521ZM76.5947 36.1589C77.2019 36.1589 77.809 36.1589 78.4162 36.1589C78.5984 36.1589 78.6894 36.1287 78.7198 35.9174C78.7805 35.2836 78.902 34.6497 78.993 34.0159C79.0234 33.8046 78.9323 33.7744 78.7502 33.7744C77.5662 33.7744 76.3518 33.7744 75.1678 33.7744C74.9857 33.7744 74.8946 33.8348 74.8946 34.0159C74.8339 34.6497 74.7125 35.2836 74.6214 35.9174C74.591 36.1287 74.6821 36.1589 74.8339 36.1287C75.4107 36.1287 76.0179 36.1589 76.5947 36.1589ZM19.1562 41.9238C19.4598 41.8936 19.7634 41.8936 20.067 41.8634C20.3706 41.8332 20.6742 41.7427 20.9474 41.6219C21.5242 41.3503 21.8885 40.7164 21.8278 40.0826C21.7671 39.5091 21.4331 39.2073 20.7045 39.0564C20.0974 38.9357 19.5205 38.9357 18.9134 38.9357C18.7009 38.9357 18.6401 38.996 18.6098 39.2073C18.5187 40.0222 18.3973 40.8372 18.2455 41.6521C18.2151 41.8634 18.2758 41.9539 18.5187 41.9238C18.7312 41.9238 18.9437 41.9238 19.1562 41.9238ZM83.4861 33.533C83.2432 33.533 83.0914 33.533 82.9396 33.533C82.7575 33.533 82.6968 33.5933 82.6664 33.7744C82.545 34.6799 82.4235 35.5854 82.3021 36.4909C82.2414 37.004 82.2414 37.004 82.7575 36.9738C82.9396 36.9738 83.1218 36.9738 83.3039 36.9738C83.9111 36.9134 84.4576 36.7927 84.913 36.34C85.3987 35.8269 85.5505 35.2232 85.3683 34.529C85.1862 33.8952 84.6701 33.6839 84.0933 33.5933C83.8504 33.533 83.6379 33.533 83.4861 33.533ZM93.0794 39.5393C94.1116 39.5393 95.0831 39.5393 96.0546 39.5393C96.3278 39.5393 96.3581 39.4488 96.3278 39.2073C96.176 38.5131 96.0242 37.8189 95.8724 37.1247C95.7206 36.4305 95.5688 35.7061 95.3867 34.8912C94.567 36.4909 93.8384 37.9698 93.0794 39.5393ZM19.6116 36.2192C20.2188 36.2192 20.6438 36.1287 20.9778 35.9174C21.4635 35.6156 21.7064 34.9214 21.5849 34.3479C21.4635 33.865 21.1295 33.6235 20.4617 33.533C20.2188 33.5028 19.9456 33.533 19.7027 33.5028C19.4598 33.4726 19.3991 33.5933 19.3687 33.8046C19.2777 34.4385 19.1866 35.0723 19.1259 35.7061C19.0348 36.2192 19.0348 36.2192 19.6116 36.2192Z" fill="white"/>
</svg>
